<svg width="10" height="16" viewBox="0 0 10 16" fill="none" xmlns="http://www.w3.org/2000/svg">
<g clip-path="url(#clip0_17_100)">
<path d="M5.42308 15.9924L6.9 13.553L8.38461 11.106V12.9621V14.8181L9.19231 13.606L10 12.4015V8.22722V4.06055L9.21538 2.96207L8.46923 1.92722V3.60449V5.40676L6.88462 2.93934L5.4 0.537825H5H4.57692L3.1 2.97722L1.61538 5.42419V3.56813V1.71207L0.807692 3.15146L0 4.59085V8.59086V12.5909L0.792308 13.6893L1.57692 14.7878L1.61538 13.0075L1.65385 11.2272L3.11538 13.5909L4.58462 15.9924M5.12 13.8969C5.08 13.8333 1.53077 8.27267 1.53077 8.27267L3.26231 5.42419C4.65077 3.13631 4.98615 2.56964 5.04846 2.49313C5.09308 2.55373 5.94538 4.00752 6.87385 5.5151L8.56615 8.25752" fill="black"/>
</g>
<defs>
<clipPath id="clip0_17_100">
<rect width="10" height="15.6061" fill="white"/>
</clipPath>
</defs>
</svg>
